<mxfile host="app.diagrams.net" modified="2023-11-15T08:21:57.644Z" agent="Mozilla/5.0 (X11; Ubuntu; Linux x86_64; rv:109.0) Gecko/20100101 Firefox/113.0" version="22.1.1" etag="-Xz6hLmlZ5RQOpRm14tG" type="github">
  <diagram name="Page-1" id="ADV1L59gZRhlDNWgUwnv">
    <mxGraphModel>
      <root>
        <mxCell id="0" />
        <mxCell id="1" parent="0" />
      </root>
    </mxGraphModel>
  </diagram>
</mxfile>
